<svg width="64" height="64" viewBox="0 0 64 64" fill="none" xmlns="http://www.w3.org/2000/svg" role="img" aria-label="Social Video RAG icon">
  <rect width="64" height="64" rx="14" fill="#111827"/>
  <path d="M13 18C13 14.6863 15.6863 12 19 12H45C48.3137 12 51 14.6863 51 18V34C51 37.3137 48.3137 40 45 40H34.8L26.9 47.2C25.9458 48.0697 24.4 47.393 24.4 46.1017V40H19C15.6863 40 13 37.3137 13 34V18Z" fill="#F8FAFC"/>
  <path d="M24 22.9807C24 21.4306 25.6885 20.4704 27.0218 21.2611L38.8658 28.2804C40.1749 29.0568 40.1749 30.9432 38.8658 31.7196L27.0218 38.7389C25.6885 39.5296 24 38.5694 24 37.0193V22.9807Z" fill="#111827"/>
  <path d="M15.5 18C15.5 16.067 17.067 14.5 19 14.5H45C46.933 14.5 48.5 16.067 48.5 18V20H15.5V18Z" fill="#38BDF8"/>
  <circle cx="20" cy="17.5" r="1.5" fill="#111827"/>
  <circle cx="25" cy="17.5" r="1.5" fill="#111827"/>
  <circle cx="30" cy="17.5" r="1.5" fill="#111827"/>
  <path d="M44.5 13.5L47.2961 8.20383C47.6103 7.60861 48.4584 7.60861 48.7726 8.20383L51.5687 13.5L56.8649 16.2961C57.4601 16.6103 57.4601 17.4584 56.8649 17.7726L51.5687 20.5687L48.7726 25.8649C48.4584 26.4601 47.6103 26.4601 47.2961 25.8649L44.5 20.5687L39.2038 17.7726C38.6086 17.4584 38.6086 16.6103 39.2038 16.2961L44.5 13.5Z" fill="#FACC15"/>
  <path d="M12.8 45.2002C16.3346 47.981 20.404 50.0051 24.7552 51.1466C29.1064 52.2882 33.6467 52.5228 38.0937 51.8359C42.5408 51.149 46.7998 49.5552 50.6064 47.1533" stroke="#2DD4BF" stroke-width="4" stroke-linecap="round"/>
  <path d="M15.2 51.2C21.4903 55.287 28.9944 57.0759 36.4535 56.2673C43.9127 55.4587 50.8733 52.1019 56.2 46.75" stroke="#FB7185" stroke-width="3" stroke-linecap="round"/>
</svg>
